<svg width="492" height="319" viewBox="0 0 492 319" fill="none" xmlns="http://www.w3.org/2000/svg">
<path d="M117.334 256.121C182.137 256.121 234.669 250.118 234.669 242.713C234.669 235.308 182.137 229.305 117.334 229.305C52.5324 229.305 0 235.308 0 242.713C0 250.118 52.5324 256.121 117.334 256.121Z" fill="#E6E6E6"/>
<path d="M80.5508 195.762C79.3161 196.339 78.3376 197.351 77.803 198.604C77.2534 200.338 78.2862 202.139 79.338 203.617C86.7236 213.919 97.0919 221.708 109.044 225.932C118.168 229.134 128.733 230.006 137.167 225.278C146.869 219.839 151.503 208.402 153.616 197.477C153.938 195.819 154.156 193.914 153.057 192.625C152.383 191.944 151.534 191.462 150.603 191.233C144.918 189.413 138.863 189.792 132.941 190.285C122.789 191.056 112.65 192.003 102.524 193.128C94.6882 193.876 87.9038 191.507 80.5508 195.762Z" fill="#999999"/>
<path d="M82.4933 281.695C82.4933 281.695 67.3326 270.409 66.2713 269.282C65.2101 268.154 46.7519 276.749 49.1492 283.495C50.6842 287.825 98.2604 323.567 100.724 317.948C108.124 301.195 82.4933 281.695 82.4933 281.695Z" fill="#E6E6E6"/>
<path d="M150.48 281.638C150.48 281.638 165.745 270.476 166.806 269.32C167.867 268.164 186.268 276.9 183.862 283.685C182.289 288.005 134.438 323.358 132.021 317.73C124.687 300.939 150.48 281.638 150.48 281.638Z" fill="#E6E6E6"/>
<path d="M169.326 177.882C169.326 177.882 199.742 163.564 213.681 180.724C227.24 197.439 220.01 211.529 207.342 221.346C194.673 231.162 87.2784 286.338 87.2784 286.338L65.1627 269.092C65.1627 269.092 153.834 203.105 155.255 201.694C156.677 200.282 169.326 177.882 169.326 177.882Z" fill="#B3B3B3"/>
<path d="M88.0174 269.566L87.6005 268.543C87.8753 268.429 115.714 256.935 143.269 242.845C179.579 224.283 198.909 209.681 199.174 200.718C199.477 190.711 189.556 185.206 183.625 182.818C171.78 178.081 156.345 177.607 152.46 181.871C151.512 182.97 151.399 184.287 152.251 185.898L151.304 186.41C149.968 183.87 150.764 182.136 151.673 181.132C155.9 176.451 171.638 176.754 184.07 181.757C194.787 186.069 200.557 192.796 200.311 200.708C199.61 223.364 92.5751 267.69 88.0174 269.566Z" fill="#F2F2F2"/>
<path d="M148.594 283.154C150.489 281.638 169.838 270.021 169.838 270.021L82.0763 196.112L53.9153 173.646C53.9153 173.646 13.0856 169.429 8.85003 194.719C4.6145 220.009 24.3424 229.779 53.9153 243.859C83.4881 257.94 148.594 283.154 148.594 283.154Z" fill="#B3B3B3"/>
<path d="M150.101 269.566C149.153 269.159 51.9444 228.537 32.3776 212.808C30.7997 211.46 29.5111 209.806 28.5894 207.946C27.6677 206.087 27.132 204.06 27.0145 201.987C26.645 197.856 27.6304 193.819 29.6392 191.185C38.4135 179.72 81.65 182.657 83.4882 182.752L83.4124 183.851C82.9671 183.851 38.9346 180.867 30.5204 191.858C26.6734 196.88 27.0998 207.142 33.0788 211.955C52.5224 227.59 149.551 268.145 150.574 268.552L150.101 269.566Z" fill="#F2F2F2"/>
<path d="M86.9752 49.4324C89.351 49.4324 91.277 47.5064 91.277 45.1306C91.277 42.7547 89.351 40.8287 86.9752 40.8287C84.5993 40.8287 82.6733 42.7547 82.6733 45.1306C82.6733 47.5064 84.5993 49.4324 86.9752 49.4324Z" fill="#754C24"/>
<path d="M137.659 49.4324C140.035 49.4324 141.961 47.5064 141.961 45.1306C141.961 42.7547 140.035 40.8287 137.659 40.8287C135.283 40.8287 133.357 42.7547 133.357 45.1306C133.357 47.5064 135.283 49.4324 137.659 49.4324Z" fill="#754C24"/>
<path d="M128.25 70.8943C128.07 65.7966 128.487 59.9313 127.606 55.8663C127.502 55.3925 124.991 55.5725 124.687 55.1935C124.242 54.625 122.66 54.5966 121.949 54.4355C115.847 53.0805 109.479 54.1228 103.254 54.6819C101.198 54.8714 97.5687 55.0703 96.3937 57.0697C95.0671 59.2774 95.4462 63.5509 95.3514 66.3177C95.1145 73.1211 94.4607 81.0615 93.9017 87.8554C93.7567 88.6641 93.8868 89.4981 94.2712 90.2243C94.6864 90.6087 95.215 90.8481 95.7778 90.9065C106.352 93.1143 117.334 92.6216 127.994 90.9065C128.342 90.8759 128.673 90.7405 128.942 90.518C129.081 90.3491 129.182 90.1532 129.241 89.9428C129.3 89.7323 129.314 89.5119 129.283 89.2957C128.809 82.4165 128.506 78.0483 128.25 70.8943Z" fill="#754C24"/>
<path d="M137.65 35.2382C138.19 53.3458 129.539 68.2886 113.298 68.7907C97.5593 69.274 87.5342 54.8618 86.9847 36.7543C86.4351 18.6467 97.3414 3.59019 111.337 3.20169C125.332 2.8132 137.11 17.1306 137.65 35.2382Z" fill="#8C6239"/>
<path d="M125.114 38.7725C126.291 38.7725 127.246 37.818 127.246 36.6405C127.246 35.4631 126.291 34.5085 125.114 34.5085C123.936 34.5085 122.982 35.4631 122.982 36.6405C122.982 37.818 123.936 38.7725 125.114 38.7725Z" fill="#002784"/>
<path d="M131.443 33.059C129.009 31.5595 126.22 30.7323 123.361 30.6617C123.214 30.6617 123.073 30.7201 122.969 30.8241C122.865 30.9281 122.807 31.069 122.807 31.2161C122.807 31.3631 122.865 31.5041 122.969 31.608C123.073 31.712 123.214 31.7704 123.361 31.7704C126.022 31.8375 128.618 32.6091 130.884 34.0066C130.947 34.0445 131.016 34.0699 131.088 34.0811C131.16 34.0924 131.233 34.0893 131.304 34.0722C131.375 34.055 131.442 34.0241 131.5 33.9811C131.559 33.9382 131.609 33.884 131.647 33.8218C131.685 33.7596 131.71 33.6905 131.722 33.6185C131.733 33.5465 131.73 33.473 131.713 33.4022C131.696 33.3313 131.665 33.2646 131.622 33.2057C131.579 33.1468 131.525 33.097 131.462 33.059H131.443Z" fill="#002784"/>
<path d="M112.095 58.5668C109.434 58.5021 106.838 57.7338 104.571 56.3401C104.509 56.3021 104.44 56.2768 104.368 56.2656C104.296 56.2543 104.222 56.2574 104.151 56.2745C104.081 56.2917 104.014 56.3226 103.955 56.3656C103.896 56.4085 103.846 56.4627 103.808 56.5249C103.77 56.5871 103.745 56.6562 103.734 56.7282C103.723 56.8002 103.726 56.8737 103.743 56.9445C103.76 57.0154 103.791 57.0821 103.834 57.141C103.877 57.1999 103.931 57.2497 103.993 57.2876C106.429 58.7838 109.218 59.6077 112.076 59.6755C112.223 59.6755 112.364 59.6171 112.468 59.5131C112.572 59.4091 112.63 59.2682 112.63 59.1211C112.63 58.9741 112.572 58.8331 112.468 58.7292C112.364 58.6252 112.223 58.5668 112.076 58.5668H112.095Z" fill="#002784"/>
<path d="M100.885 38.7725C102.063 38.7725 103.017 37.818 103.017 36.6405C103.017 35.4631 102.063 34.5085 100.885 34.5085C99.7076 34.5085 98.7531 35.4631 98.7531 36.6405C98.7531 37.818 99.7076 38.7725 100.885 38.7725Z" fill="#002784"/>
<path d="M104.448 31.8556C104.595 31.8556 104.736 31.7972 104.84 31.6932C104.944 31.5893 105.002 31.4483 105.002 31.3013C105.002 31.1543 104.944 31.0133 104.84 30.9093C104.736 30.8054 104.595 30.747 104.448 30.747C101.58 30.7436 98.764 31.5058 96.2895 32.9547C96.2273 32.9914 96.173 33.04 96.1295 33.0978C96.0861 33.1555 96.0544 33.2212 96.0364 33.2912C96.0184 33.3611 96.0143 33.4339 96.0244 33.5055C96.0345 33.577 96.0586 33.6458 96.0953 33.708C96.132 33.7703 96.1806 33.8246 96.2383 33.8681C96.2961 33.9115 96.3618 33.9431 96.4317 33.9612C96.5017 33.9792 96.5745 33.9833 96.646 33.9732C96.7175 33.9631 96.7864 33.939 96.8486 33.9023C99.1466 32.5528 101.764 31.8428 104.429 31.8461L104.448 31.8556Z" fill="#002784"/>
<path d="M116.965 43.4441C115.231 42.1649 114.009 38.9338 113.999 38.9053C113.948 38.7684 113.844 38.6575 113.711 38.5971C113.577 38.5367 113.425 38.5317 113.288 38.5832C113.151 38.6347 113.041 38.7385 112.98 38.8718C112.92 39.0051 112.915 39.1569 112.966 39.2938C113.023 39.436 114.312 42.8661 116.292 44.3253C116.874 44.7062 117.314 45.268 117.544 45.924C117.775 46.58 117.783 47.2937 117.567 47.9547C117.352 48.6157 116.924 49.1873 116.351 49.5812C115.778 49.9751 115.091 50.1692 114.397 50.1338C113.982 50.2173 113.555 50.2151 113.141 50.1271C112.727 50.0391 112.335 49.8672 111.99 49.6221C111.946 49.5655 111.89 49.5182 111.827 49.4831C111.764 49.4479 111.695 49.4255 111.623 49.4171C111.551 49.4088 111.478 49.4146 111.409 49.4343C111.34 49.4541 111.275 49.4873 111.218 49.5321C111.161 49.5769 111.114 49.6324 111.079 49.6954C111.044 49.7585 111.021 49.8278 111.013 49.8995C111.005 49.9712 111.011 50.0439 111.03 50.1134C111.05 50.1828 111.083 50.2477 111.128 50.3043C111.491 50.6473 111.923 50.9091 112.395 51.0725C112.867 51.2358 113.369 51.297 113.866 51.2519C114.084 51.2519 114.302 51.2519 114.501 51.2519C115.219 51.2407 115.923 51.0545 116.552 50.7093C117.181 50.3642 117.716 49.8706 118.111 49.2715C118.645 48.3225 118.822 47.2146 118.612 46.1466C118.402 45.0786 117.818 44.1204 116.965 43.4441Z" fill="#002784"/>
<path d="M137.517 31.9597C135.898 31.5307 134.421 30.6832 133.233 29.5023C132.046 28.3213 131.19 26.8486 130.752 25.2321C119.522 28.0245 107.753 27.7957 96.6402 24.5689C96.4207 26.9636 95.3052 29.1872 93.5167 30.7947C91.7282 32.4023 89.3986 33.2752 86.9941 33.2389C86.7841 29.125 87.1025 25.0011 87.9417 20.9682C88.1628 19.9954 88.406 19.0257 88.6713 18.0592C89.0314 16.7611 89.3914 15.5767 89.7515 14.468C95.6358 -3.6585 100.828 2.83218 103.51 2.90798C103.51 2.90798 107.84 -4.02805 124.669 3.52389C130.269 6.05383 133.604 9.72083 135.471 14.2596C136.54 17.0165 137.179 19.9215 137.366 22.8728C137.578 25.898 137.578 28.9344 137.366 31.9597" fill="#002784"/>
<path d="M37.7407 135.678C37.7407 135.678 35.0308 155.226 51.4517 179.578C67.8727 203.93 87.7806 200.358 87.7806 200.358V183.69L81.9721 152.175L75.1024 138.085L37.5512 133.612L37.7407 135.678Z" fill="#8C6239"/>
<path d="M183.483 129.832C183.483 129.832 191.215 172.149 174.661 185.964C158.107 199.78 150.887 190.2 150.887 190.2L137.186 161.65L141.554 139.857L146.765 131.964L158.278 126.155H170.094L183.483 129.832Z" fill="#8C6239"/>
<path d="M95.2377 69.2932C95.2377 69.2932 94.2901 80.6637 99.17 85.0698C110.285 95.019 123.361 88.86 126.279 84.0559C128.705 80.0478 128.231 67.436 128.231 67.436C143.719 71.0729 158.138 78.2905 170.331 88.5094C182.497 98.8755 184.061 107.877 185.254 120.082C186.448 132.286 184.762 140.198 184.762 140.198C184.762 140.198 175.826 133.451 164.285 136.569L154.516 139.222L156.364 162.257L74.9792 164.796L70.412 144.054C70.412 144.054 51.4611 137.554 42.5921 142.851C37.9965 145.589 38.5082 148.716 38.5082 148.716C35.4905 138.509 35.164 127.695 37.5606 117.324C40.1825 106.174 45.3742 95.7905 52.7214 87.0028C61.5714 76.8451 95.3609 66.8201 95.3609 66.8201L95.2377 69.2932Z" fill="#FAB071"/>
<mask id="mask0" mask-type="alpha" maskUnits="userSpaceOnUse" x="35" y="66" width="151" height="99">
<path d="M95.2377 69.2932C95.2377 69.2932 94.2901 80.6637 99.17 85.0698C110.285 95.019 123.361 88.86 126.279 84.0559C128.705 80.0478 128.231 67.436 128.231 67.436C143.719 71.0729 158.138 78.2905 170.331 88.5094C182.497 98.8755 184.061 107.877 185.254 120.082C186.448 132.286 184.762 140.198 184.762 140.198C184.762 140.198 175.826 133.451 164.285 136.569L154.516 139.222L156.364 162.257L74.9792 164.796L70.412 144.054C70.412 144.054 51.4611 137.554 42.5921 142.851C37.9965 145.589 38.5082 148.716 38.5082 148.716C35.4905 138.509 35.164 127.695 37.5606 117.324C40.1825 106.174 45.3742 95.7905 52.7214 87.0028C61.5714 76.8451 95.3609 66.8201 95.3609 66.8201L95.2377 69.2932Z" fill="#FAB071"/>
</mask>
<g mask="url(#mask0)">
<g opacity="0.72">
<path opacity="0.72" d="M78.912 71.7567C78.6958 71.7566 78.4882 71.6715 78.334 71.5198L56.3889 49.6126L34.8796 71.1218C34.7238 71.2702 34.5162 71.3518 34.301 71.3492C34.0859 71.3466 33.8803 71.2599 33.7282 71.1078C33.576 70.9557 33.4894 70.7501 33.4868 70.5349C33.4842 70.3198 33.5658 70.1122 33.7141 69.9564L55.8014 47.8691C55.956 47.7146 56.1656 47.6278 56.3842 47.6278C56.6027 47.6278 56.8123 47.7146 56.9669 47.8691L79.49 70.3922C79.6034 70.5075 79.6803 70.6535 79.7114 70.8121C79.7424 70.9707 79.7261 71.135 79.6645 71.2844C79.6029 71.4339 79.4987 71.5619 79.3649 71.6526C79.2312 71.7433 79.0737 71.7927 78.912 71.7946" fill="#ACDAC8"/>
<path opacity="0.72" d="M78.9117 184.448C78.6954 184.448 78.4878 184.363 78.3337 184.211L56.3885 162.257L34.8793 183.756C34.7219 183.874 34.5279 183.931 34.3322 183.918C34.1364 183.905 33.9517 183.822 33.8113 183.685C33.6709 183.548 33.5839 183.366 33.566 183.17C33.5481 182.975 33.6005 182.78 33.7138 182.619L55.8011 160.532C55.9556 160.378 56.1653 160.291 56.3838 160.291C56.6024 160.291 56.812 160.378 56.9665 160.532L79.4897 183.065C79.603 183.18 79.68 183.326 79.711 183.485C79.742 183.643 79.7257 183.807 79.6641 183.957C79.6025 184.106 79.4984 184.234 79.3646 184.325C79.2308 184.416 79.0733 184.465 78.9117 184.467" fill="#ACDAC8"/>
<path opacity="0.72" d="M131.917 71.7567C131.701 71.7566 131.493 71.6715 131.339 71.5198L109.394 49.5747L87.8848 71.0839C87.7284 71.2026 87.5348 71.2616 87.3389 71.2502C87.1429 71.2389 86.9574 71.1579 86.8157 71.022C86.6741 70.8861 86.5856 70.7041 86.5662 70.5087C86.5468 70.3134 86.5977 70.1175 86.7099 69.9564L108.797 47.8691C108.952 47.7146 109.161 47.6278 109.38 47.6278C109.598 47.6278 109.808 47.7146 109.963 47.8691L132.486 70.3922C132.599 70.5075 132.676 70.6535 132.707 70.8121C132.738 70.9707 132.722 71.135 132.66 71.2844C132.599 71.4339 132.494 71.5619 132.361 71.6526C132.227 71.7433 132.069 71.7927 131.908 71.7946" fill="#ACDAC8"/>
<path opacity="0.72" d="M131.917 184.448C131.701 184.448 131.493 184.363 131.339 184.211L109.394 162.257L87.8848 183.756C87.7282 183.881 87.5315 183.945 87.3314 183.935C87.1314 183.926 86.9417 183.843 86.7977 183.704C86.6538 183.565 86.5655 183.378 86.5494 183.178C86.5332 182.979 86.5902 182.78 86.7099 182.619L108.797 160.532C108.952 160.378 109.161 160.291 109.38 160.291C109.598 160.291 109.808 160.378 109.963 160.532L132.486 183.065C132.599 183.18 132.676 183.326 132.707 183.485C132.738 183.643 132.722 183.807 132.66 183.957C132.599 184.106 132.494 184.234 132.361 184.325C132.227 184.416 132.069 184.465 131.908 184.467" fill="#ACDAC8"/>
<path opacity="0.72" d="M184.932 71.7567C184.716 71.7566 184.509 71.6715 184.354 71.5198L162.409 49.5747L140.9 71.0839C140.743 71.1758 140.559 71.213 140.379 71.1896C140.198 71.1663 140.03 71.0838 139.901 70.955C139.773 70.8262 139.69 70.6583 139.667 70.4777C139.643 70.297 139.681 70.1137 139.772 69.9564L161.86 47.8691C162.014 47.7146 162.224 47.6278 162.442 47.6278C162.661 47.6278 162.871 47.7146 163.025 47.8691L185.548 70.3922C185.662 70.5075 185.739 70.6535 185.77 70.8121C185.801 70.9707 185.784 71.135 185.723 71.2844C185.661 71.4339 185.557 71.5619 185.423 71.6526C185.289 71.7433 185.132 71.7927 184.97 71.7946" fill="#ACDAC8"/>
<path opacity="0.72" d="M56.9665 70.3923C56.8119 70.2378 56.6023 70.151 56.3837 70.151C56.1652 70.151 55.9556 70.2378 55.801 70.3923L33.7137 92.4795C33.5653 92.6353 33.4837 92.843 33.4864 93.0581C33.489 93.2733 33.5756 93.4789 33.7277 93.631C33.8799 93.7831 34.0855 93.8698 34.3006 93.8724C34.5158 93.875 34.7234 93.7934 34.8792 93.645L56.3885 72.1358L78.3336 94.0904C78.4094 94.17 78.5004 94.2336 78.6012 94.2776C78.702 94.3215 78.8106 94.3448 78.9205 94.3462C79.0304 94.3475 79.1395 94.3268 79.2414 94.2854C79.3432 94.2439 79.4357 94.1825 79.5135 94.1048C79.5912 94.027 79.6526 93.9345 79.6941 93.8327C79.7355 93.7308 79.7562 93.6217 79.7549 93.5118C79.7535 93.4019 79.7302 93.2933 79.6863 93.1925C79.6424 93.0917 79.5787 93.0007 79.4991 92.9249L56.9665 70.3923Z" fill="#FCCBA0"/>
<path opacity="0.72" d="M56.9665 92.9342C56.8119 92.7797 56.6023 92.6929 56.3837 92.6929C56.1652 92.6929 55.9556 92.7797 55.801 92.9342L33.7137 115.021C33.5653 115.177 33.4837 115.385 33.4864 115.6C33.489 115.815 33.5756 116.021 33.7277 116.173C33.8799 116.325 34.0855 116.412 34.3006 116.414C34.5158 116.417 34.7234 116.335 34.8792 116.187L56.3885 94.6776L78.3336 116.623C78.4094 116.702 78.5004 116.766 78.6012 116.81C78.702 116.854 78.8106 116.877 78.9205 116.879C79.0304 116.88 79.1395 116.859 79.2414 116.818C79.3432 116.776 79.4357 116.715 79.5135 116.637C79.5912 116.559 79.6526 116.467 79.6941 116.365C79.7355 116.263 79.7562 116.154 79.7549 116.044C79.7535 115.934 79.7302 115.826 79.6863 115.725C79.6424 115.624 79.5787 115.533 79.4991 115.457L56.9665 92.9342Z" fill="#FCCBA0"/>
<path opacity="0.72" d="M56.9665 115.457C56.8119 115.303 56.6023 115.216 56.3837 115.216C56.1652 115.216 55.9556 115.303 55.801 115.457L33.7137 137.545C33.5653 137.701 33.4837 137.908 33.4864 138.123C33.489 138.338 33.5756 138.544 33.7277 138.696C33.8799 138.848 34.0855 138.935 34.3006 138.938C34.5158 138.94 34.7234 138.859 34.8792 138.71L56.3885 117.239L78.3336 139.184C78.4094 139.264 78.5004 139.327 78.6012 139.371C78.702 139.415 78.8106 139.438 78.9205 139.44C79.0304 139.441 79.1395 139.42 79.2414 139.379C79.3432 139.338 79.4357 139.276 79.5135 139.198C79.5912 139.121 79.6526 139.028 79.6941 138.926C79.7355 138.824 79.7562 138.715 79.7549 138.605C79.7535 138.495 79.7302 138.387 79.6863 138.286C79.6424 138.185 79.5787 138.094 79.4991 138.018L56.9665 115.457Z" fill="#FCCBA0"/>
<path opacity="0.72" d="M56.9665 137.981C56.8095 137.831 56.6008 137.747 56.3837 137.747C56.1666 137.747 55.9579 137.831 55.801 137.981L33.7137 160.068C33.5653 160.224 33.4837 160.431 33.4864 160.646C33.489 160.862 33.5756 161.067 33.7277 161.219C33.8799 161.371 34.0855 161.458 34.3006 161.461C34.5158 161.463 34.7234 161.382 34.8792 161.233L56.3885 139.724L78.3336 161.669C78.4894 161.818 78.6971 161.899 78.9122 161.897C79.1273 161.894 79.3329 161.807 79.485 161.655C79.6372 161.503 79.7238 161.297 79.7264 161.082C79.729 160.867 79.6475 160.66 79.4991 160.504L56.9665 137.981Z" fill="#FCCBA0"/>
<path opacity="0.72" d="M109.972 70.3923C109.817 70.2378 109.608 70.151 109.389 70.151C109.171 70.151 108.961 70.2378 108.807 70.3923L86.7098 92.4795C86.5614 92.6353 86.4798 92.843 86.4825 93.0581C86.4851 93.2733 86.5717 93.4789 86.7238 93.631C86.876 93.7831 87.0816 93.8698 87.2967 93.8724C87.5118 93.875 87.7195 93.7934 87.8753 93.645L109.385 72.1358L131.33 94.0904C131.406 94.17 131.497 94.2336 131.597 94.2776C131.698 94.3215 131.807 94.3448 131.917 94.3462C132.027 94.3475 132.136 94.3268 132.237 94.2854C132.339 94.2439 132.432 94.1825 132.51 94.1048C132.587 94.027 132.649 93.9345 132.69 93.8327C132.732 93.7308 132.752 93.6217 132.751 93.5118C132.75 93.4019 132.726 93.2933 132.682 93.1925C132.638 93.0917 132.575 93.0007 132.495 92.9249L109.972 70.3923Z" fill="#FCCBA0"/>
<path opacity="0.72" d="M109.972 92.9342C109.817 92.7797 109.608 92.6929 109.389 92.6929C109.171 92.6929 108.961 92.7797 108.807 92.9342L86.7098 115.021C86.5614 115.177 86.4798 115.385 86.4825 115.6C86.4851 115.815 86.5717 116.021 86.7238 116.173C86.876 116.325 87.0816 116.412 87.2967 116.414C87.5118 116.417 87.7195 116.335 87.8753 116.187L109.385 94.6776L131.33 116.623C131.406 116.702 131.497 116.766 131.597 116.81C131.698 116.854 131.807 116.877 131.917 116.879C132.027 116.88 132.136 116.859 132.237 116.818C132.339 116.776 132.432 116.715 132.51 116.637C132.587 116.559 132.649 116.467 132.69 116.365C132.732 116.263 132.752 116.154 132.751 116.044C132.75 115.934 132.726 115.826 132.682 115.725C132.638 115.624 132.575 115.533 132.495 115.457L109.972 92.9342Z" fill="#FCCBA0"/>
<path opacity="0.72" d="M109.972 115.457C109.817 115.303 109.608 115.216 109.389 115.216C109.171 115.216 108.961 115.303 108.807 115.457L86.7098 137.545C86.5614 137.701 86.4798 137.908 86.4825 138.123C86.4851 138.338 86.5717 138.544 86.7238 138.696C86.876 138.848 87.0816 138.935 87.2967 138.938C87.5118 138.94 87.7195 138.859 87.8753 138.71L109.385 117.201L131.33 139.146C131.406 139.226 131.497 139.289 131.597 139.333C131.698 139.377 131.807 139.401 131.917 139.402C132.027 139.403 132.136 139.383 132.237 139.341C132.339 139.3 132.432 139.238 132.51 139.16C132.587 139.083 132.649 138.99 132.69 138.888C132.732 138.787 132.752 138.677 132.751 138.568C132.75 138.458 132.726 138.349 132.682 138.248C132.638 138.147 132.575 138.056 132.495 137.981L109.972 115.457Z" fill="#FCCBA0"/>
<path opacity="0.72" d="M109.972 137.981C109.815 137.831 109.606 137.747 109.389 137.747C109.172 137.747 108.963 137.831 108.807 137.981L86.7098 160.068C86.5614 160.224 86.4798 160.431 86.4825 160.646C86.4851 160.862 86.5717 161.067 86.7238 161.219C86.876 161.371 87.0816 161.458 87.2967 161.461C87.5118 161.463 87.7195 161.382 87.8753 161.233L109.385 139.724L131.339 161.679C131.495 161.827 131.703 161.909 131.918 161.906C132.133 161.903 132.338 161.817 132.491 161.665C132.643 161.512 132.729 161.307 132.732 161.092C132.735 160.877 132.653 160.669 132.505 160.513L109.972 137.981Z" fill="#FCCBA0"/>
<path opacity="0.72" d="M140.9 93.645L162.409 72.1358L184.307 94.0904C184.383 94.17 184.474 94.2336 184.575 94.2776C184.675 94.3215 184.784 94.3448 184.894 94.3462C185.004 94.3475 185.113 94.3268 185.215 94.2854C185.317 94.2439 185.409 94.1825 185.487 94.1048C185.565 94.027 185.626 93.9345 185.668 93.8327C185.709 93.7308 185.73 93.6217 185.728 93.5118C185.727 93.4019 185.704 93.2933 185.66 93.1925C185.616 93.0917 185.552 93.0007 185.473 92.9249L162.987 70.3923C162.833 70.2378 162.623 70.151 162.405 70.151C162.186 70.151 161.976 70.2378 161.822 70.3923L139.772 92.4795C139.624 92.6353 139.542 92.843 139.545 93.0581C139.548 93.2733 139.634 93.4789 139.786 93.631C139.939 93.7831 140.144 93.8698 140.359 93.8724C140.574 93.875 140.782 93.7934 140.938 93.645H140.9Z" fill="#FCCBA0"/>
<path opacity="0.72" d="M162.987 92.9342C162.833 92.7797 162.623 92.6929 162.405 92.6929C162.186 92.6929 161.976 92.7797 161.822 92.9342L139.772 115.021C139.624 115.177 139.542 115.385 139.545 115.6C139.548 115.815 139.634 116.021 139.786 116.173C139.939 116.325 140.144 116.412 140.359 116.414C140.574 116.417 140.782 116.335 140.938 116.187L162.447 94.6776L184.307 116.623C184.383 116.702 184.474 116.766 184.575 116.81C184.675 116.854 184.784 116.877 184.894 116.879C185.004 116.88 185.113 116.859 185.215 116.818C185.317 116.776 185.409 116.715 185.487 116.637C185.565 116.559 185.626 116.467 185.668 116.365C185.709 116.263 185.73 116.154 185.728 116.044C185.727 115.934 185.704 115.826 185.66 115.725C185.616 115.624 185.552 115.533 185.473 115.457L162.987 92.9342Z" fill="#FCCBA0"/>
<path opacity="0.72" d="M162.987 115.457C162.833 115.303 162.623 115.216 162.405 115.216C162.186 115.216 161.976 115.303 161.822 115.457L139.772 137.545C139.624 137.701 139.542 137.908 139.545 138.123C139.548 138.338 139.634 138.544 139.786 138.696C139.939 138.848 140.144 138.935 140.359 138.938C140.574 138.94 140.782 138.859 140.938 138.71L162.447 117.201L184.307 139.146C184.383 139.226 184.474 139.289 184.575 139.333C184.675 139.377 184.784 139.401 184.894 139.402C185.004 139.403 185.113 139.383 185.215 139.341C185.317 139.3 185.409 139.238 185.487 139.16C185.565 139.083 185.626 138.99 185.668 138.888C185.709 138.787 185.73 138.677 185.728 138.568C185.727 138.458 185.704 138.349 185.66 138.248C185.616 138.147 185.552 138.056 185.473 137.981L162.987 115.457Z" fill="#FCCBA0"/>
<path opacity="0.72" d="M162.987 137.981C162.83 137.831 162.622 137.747 162.405 137.747C162.187 137.747 161.979 137.831 161.822 137.981L139.772 160.068C139.624 160.224 139.542 160.431 139.545 160.646C139.548 160.862 139.634 161.067 139.786 161.219C139.939 161.371 140.144 161.458 140.359 161.461C140.574 161.463 140.782 161.382 140.938 161.233L162.447 139.724L184.307 161.679C184.463 161.827 184.67 161.909 184.886 161.906C185.101 161.903 185.306 161.817 185.458 161.665C185.611 161.512 185.697 161.307 185.7 161.092C185.702 160.877 185.621 160.669 185.473 160.513L162.987 137.981Z" fill="#FCCBA0"/>
<path opacity="0.72" d="M184.932 184.448C184.716 184.448 184.508 184.363 184.354 184.211L162.409 162.257L140.9 183.756C140.742 183.851 140.556 183.891 140.373 183.868C140.19 183.845 140.02 183.761 139.89 183.63C139.76 183.499 139.678 183.328 139.657 183.145C139.635 182.962 139.676 182.777 139.772 182.619L161.86 160.532C162.014 160.378 162.224 160.291 162.442 160.291C162.661 160.291 162.871 160.378 163.025 160.532L185.548 183.065C185.662 183.18 185.739 183.326 185.77 183.485C185.801 183.643 185.784 183.807 185.723 183.957C185.661 184.106 185.557 184.234 185.423 184.325C185.289 184.416 185.132 184.465 184.97 184.467" fill="#ACDAC8"/>
</g>
</g>
<path d="M149.181 118.139H129.008V119.617H149.181V118.139Z" fill="#FCCBA0"/>
<path d="M94.9251 110.511C95.2366 110.54 95.5347 110.652 95.7881 110.835C96.0415 111.018 96.2409 111.266 96.3654 111.553C98.488 116.485 99.6336 121.782 99.7386 127.15C99.7386 136.095 96.7538 145.153 100.099 146.944C103.444 148.735 124.072 150.28 123.948 147.892C123.825 145.504 121.684 130.002 121.684 127.141C121.684 124.279 121.219 112.056 123.446 110.871C130.676 107.081 144.813 119.399 144.7 73.1115L144.595 72.7704C140.002 70.8125 135.266 69.2065 130.43 67.9664C130.17 67.8997 129.899 67.8935 129.636 67.9481C129.374 68.0028 129.128 68.1168 128.916 68.2815C128.705 68.4463 128.534 68.6572 128.417 68.8983C128.3 69.1393 128.24 69.404 128.241 69.672C128.241 73.4621 128.042 81.1088 126.251 84.0652C123.323 88.8882 110.256 95.0188 99.1417 85.079C94.2902 80.6919 95.2378 69.2929 95.2378 69.2929C95.251 69.0092 95.1956 68.7265 95.076 68.4689C94.9565 68.2112 94.7765 67.9863 94.5513 67.8132C94.3261 67.6401 94.0624 67.524 93.7827 67.4748C93.5029 67.4256 93.2155 67.4447 92.9447 67.5305C90.0073 68.4781 84.6821 70.231 78.7789 72.5146C78.4569 72.6409 78.1792 72.8592 77.9803 73.1423C77.7815 73.4254 77.6704 73.7607 77.6608 74.1065C77.405 84.0178 77.1965 108.862 94.9535 110.511" fill="#F79745"/>
<path d="M110.664 91.7592L111.327 89.9399V135.498L110.664 137.308V91.7592Z" fill="#FCCBA0"/>
<path d="M56.6537 134.295H169.914C170.651 134.319 171.35 134.63 171.863 135.16C172.376 135.69 172.662 136.4 172.662 137.137V209.463C172.662 210.201 172.376 210.91 171.863 211.441C171.35 211.971 170.651 212.281 169.914 212.306H56.6537C55.9164 212.281 55.2174 211.971 54.7047 211.441C54.1919 210.91 53.9054 210.201 53.9059 209.463V137.194C53.9054 136.456 54.1919 135.747 54.7047 135.217C55.2174 134.686 55.9164 134.376 56.6537 134.352" fill="#E6E6E6"/>
<path d="M113.288 188.229C121.499 188.229 128.155 181.573 128.155 173.362C128.155 165.151 121.499 158.495 113.288 158.495C105.078 158.495 98.4215 165.151 98.4215 173.362C98.4215 181.573 105.078 188.229 113.288 188.229Z" fill="white"/>
<path d="M363.5 259.765C434.469 259.765 492 253.497 492 245.765C492 238.033 434.469 231.765 363.5 231.765C292.531 231.765 235 238.033 235 245.765C235 253.497 292.531 259.765 363.5 259.765Z" fill="#E6E6E6"/>
<path d="M344.499 47.114C343.403 47.114 342.331 47.4391 341.42 48.048C340.509 48.657 339.798 49.5225 339.379 50.5352C338.959 51.5479 338.849 52.6622 339.063 53.7373C339.277 54.8123 339.805 55.7998 340.58 56.5749C341.355 57.3499 342.343 57.8778 343.418 58.0916C344.493 58.3055 345.607 58.1957 346.62 57.7762C347.632 57.3568 348.498 56.6464 349.107 55.7351C349.716 54.8237 350.041 53.7522 350.041 52.6561C350.041 51.1862 349.457 49.7766 348.418 48.7372C347.378 47.6979 345.969 47.114 344.499 47.114ZM344.499 55.5871C343.919 55.5871 343.352 55.4152 342.87 55.0932C342.388 54.7711 342.013 54.3133 341.791 53.7777C341.569 53.2421 341.511 52.6528 341.624 52.0842C341.737 51.5157 342.016 50.9934 342.426 50.5835C342.836 50.1736 343.358 49.8944 343.927 49.7813C344.496 49.6682 345.085 49.7263 345.621 49.9481C346.156 50.1699 346.614 50.5456 346.936 51.0276C347.258 51.5096 347.43 52.0763 347.43 52.6561C347.43 53.4334 347.121 54.179 346.571 54.7286C346.022 55.2783 345.276 55.5871 344.499 55.5871Z" fill="#FCD78A"/>
<path d="M390.236 46.1635C389.14 46.1635 388.068 46.4885 387.157 47.0975C386.245 47.7064 385.535 48.572 385.116 49.5846C384.696 50.5973 384.586 51.7116 384.8 52.7867C385.014 53.8617 385.542 54.8492 386.317 55.6243C387.092 56.3994 388.08 56.9272 389.155 57.141C390.23 57.3549 391.344 57.2451 392.357 56.8257C393.369 56.4062 394.235 55.6959 394.844 54.7845C395.453 53.8731 395.778 52.8016 395.778 51.7055C395.778 50.9777 395.634 50.257 395.356 49.5846C395.077 48.9123 394.669 48.3013 394.155 47.7867C393.64 47.2721 393.029 46.8638 392.357 46.5853C391.684 46.3068 390.964 46.1635 390.236 46.1635ZM390.236 54.6366C389.656 54.6366 389.089 54.4647 388.607 54.1426C388.125 53.8205 387.75 53.3628 387.528 52.8272C387.306 52.2916 387.248 51.7022 387.361 51.1337C387.474 50.5651 387.753 50.0428 388.163 49.6329C388.573 49.223 389.095 48.9438 389.664 48.8307C390.233 48.7176 390.822 48.7757 391.357 48.9975C391.893 49.2194 392.351 49.5951 392.673 50.0771C392.995 50.5591 393.167 51.1258 393.167 51.7055C393.164 52.4811 392.854 53.2241 392.305 53.7716C391.755 54.3191 391.011 54.6266 390.236 54.6266V54.6366Z" fill="#FCD78A"/>
<path d="M367.367 91.3803C378.323 91.3803 387.205 82.4989 387.205 71.543C387.205 60.5872 378.323 51.7057 367.367 51.7057C356.411 51.7057 347.53 60.5872 347.53 71.543C347.53 82.4989 356.411 91.3803 367.367 91.3803Z" fill="#002784"/>
<path d="M353.882 57.9779C354.633 59.7885 354.663 61.029 355.303 62.9797C355.997 64.9701 356.434 67.0409 356.603 69.142C356.881 76.6353 355.494 84.097 352.542 90.99C358.204 91.5202 364.266 91.8404 369.948 91.7903C373.87 91.7903 378.301 91.7903 382.463 91.4702C381.392 87.3187 379.462 82.5469 379.042 78.2854C378.769 75.5277 378.769 72.7499 379.042 69.9923C379.572 64.8104 381.543 60.3988 383.553 55.587C382.433 55.3394 381.296 55.1723 380.152 55.0868L374.69 54.6766C373.049 54.5566 371.409 54.4366 369.768 54.4266C364.286 54.4266 358.084 52.4758 352.952 54.4266C353.052 54.5066 353.352 56.2672 353.882 57.9779Z" fill="#754C24"/>
<path d="M343.809 50.1049C346.273 50.1049 348.27 48.1074 348.27 45.6433C348.27 43.1792 346.273 41.1816 343.809 41.1816C341.345 41.1816 339.347 43.1792 339.347 45.6433C339.347 48.1074 341.345 50.1049 343.809 50.1049Z" fill="#754C24"/>
<path d="M390.986 48.9847C393.45 48.9847 395.448 46.9871 395.448 44.523C395.448 42.0589 393.45 40.0614 390.986 40.0614C388.522 40.0614 386.524 42.0589 386.524 44.523C386.524 46.9871 388.522 48.9847 390.986 48.9847Z" fill="#754C24"/>
<path d="M393.397 34.5092C388.725 56.0571 380.152 68.0616 367.667 68.0616C355.443 68.0616 346.96 55.3869 341.338 37.9605C343.422 35.2239 344.954 32.1083 345.849 28.7871C355.853 28.3069 364.446 20.7841 368.618 12.231C373.35 18.7634 381.733 24.6155 390.356 24.8456C390.956 28.3469 391.536 31.6181 393.397 34.5092Z" fill="#8C6239"/>
<path d="M393.727 24.6256C393.111 20.9615 391.768 17.4579 389.776 14.3218C385.577 7.57412 378.967 2.67761 371.289 0.626727C369.441 0.16805 367.54 -0.0405539 365.637 0.00649942C364.968 0.0264293 364.3 0.0798491 363.636 0.166558C356.633 1.05689 349.561 5.44851 344.849 11.7608C341.222 16.4996 339.291 22.3196 339.367 28.2869C339.412 30.4956 339.748 32.6887 340.367 34.8093C340.678 35.8697 340.998 36.9101 341.368 37.9405C343.452 35.204 344.984 32.0884 345.879 28.7671C350.671 28.5343 355.311 27.0189 359.317 24.3793C363.322 21.7396 366.544 18.0726 368.648 13.7616C371.06 17.1009 374.211 19.8377 377.855 21.7587C381.499 23.6796 385.538 24.7327 389.656 24.8357C390.277 28.2828 391.572 31.5736 393.467 34.5192C393.467 34.3592 393.537 34.1891 393.577 34.029C394.216 30.9316 394.266 27.7418 393.727 24.6256Z" fill="#002784"/>
<path d="M368.628 49.2346C368.858 49.2346 369.078 49.2346 369.288 49.2346C370.034 49.2233 370.766 49.0296 371.42 48.6704C372.074 48.3112 372.63 47.7974 373.039 47.1739C373.574 46.1885 373.743 45.0465 373.518 43.9486C373.293 42.8507 372.688 41.8673 371.809 41.1716C370.008 39.8412 368.748 36.4999 368.738 36.4599C368.685 36.3153 368.577 36.1977 368.437 36.133C368.297 36.0683 368.137 36.0617 367.993 36.1148C367.848 36.1678 367.73 36.2762 367.666 36.4159C367.601 36.5557 367.594 36.7154 367.647 36.86C367.708 37.0101 369.048 40.5614 371.109 42.082C371.698 42.4787 372.143 43.0561 372.376 43.7274C372.61 44.3986 372.619 45.1274 372.402 45.8042C372.185 46.481 371.755 47.0692 371.175 47.4804C370.596 47.8915 369.898 48.1034 369.188 48.0842C368.759 48.1709 368.316 48.1687 367.888 48.0775C367.459 47.9863 367.054 47.8081 366.697 47.554C366.602 47.4333 366.462 47.3554 366.309 47.3376C366.156 47.3198 366.003 47.3634 365.882 47.459C365.761 47.5545 365.683 47.694 365.665 47.8469C365.648 47.9998 365.691 48.1535 365.787 48.2743C366.166 48.6258 366.615 48.8931 367.104 49.0587C367.594 49.2242 368.113 49.2842 368.628 49.2346Z" fill="#002784"/>
<path d="M386.104 28.5671C383.031 27.387 379.7 27.0418 376.451 27.5668C376.367 27.5776 376.286 27.6054 376.213 27.6485C376.141 27.6916 376.078 27.7491 376.028 27.8175C375.978 27.8859 375.943 27.9637 375.925 28.0462C375.906 28.1286 375.905 28.214 375.92 28.297C375.948 28.4639 376.039 28.6133 376.176 28.7127C376.313 28.812 376.484 28.8532 376.651 28.8272C379.687 28.3583 382.794 28.7035 385.654 29.8276C385.734 29.866 385.82 29.8876 385.909 29.8908C385.997 29.8941 386.085 29.879 386.168 29.8465C386.25 29.814 386.324 29.7649 386.387 29.7021C386.449 29.6393 386.498 29.5644 386.53 29.4819C386.561 29.3994 386.576 29.3112 386.572 29.2228C386.568 29.1345 386.546 29.0479 386.507 28.9685C386.468 28.8892 386.413 28.8187 386.345 28.7617C386.278 28.7047 386.199 28.6623 386.114 28.6372L386.104 28.5671Z" fill="#002784"/>
<path d="M372.949 58.198C370 58.989 366.895 58.989 363.946 58.198C363.789 58.1725 363.629 58.2061 363.496 58.2922C363.363 58.3783 363.266 58.5108 363.225 58.664C363.184 58.8173 363.201 58.9803 363.273 59.1215C363.346 59.2628 363.468 59.3721 363.616 59.4285C366.797 60.2866 370.149 60.2866 373.33 59.4285C373.478 59.3721 373.6 59.2628 373.672 59.1215C373.744 58.9803 373.762 58.8173 373.721 58.664C373.679 58.5108 373.583 58.3783 373.45 58.2922C373.316 58.2061 373.156 58.1725 372.999 58.198H372.949Z" fill="#002784"/>
<path d="M358.364 28.697C355.099 28.2877 351.784 28.7574 348.761 30.0575C348.674 30.0837 348.595 30.1276 348.527 30.1866C348.459 30.2456 348.404 30.3182 348.366 30.3997C348.328 30.4813 348.308 30.5699 348.306 30.6599C348.305 30.7498 348.322 30.8391 348.358 30.9218C348.393 31.0045 348.445 31.0789 348.511 31.14C348.577 31.2011 348.656 31.2477 348.741 31.2765C348.826 31.3054 348.916 31.316 349.006 31.3077C349.096 31.2993 349.182 31.2721 349.261 31.228C352.076 30.016 355.163 29.5775 358.204 29.9575C358.36 29.9578 358.511 29.9011 358.628 29.7981C358.745 29.695 358.821 29.5527 358.84 29.3979C358.86 29.2431 358.823 29.0865 358.735 28.9574C358.647 28.8283 358.515 28.7358 358.364 28.697Z" fill="#002784"/>
<path d="M380.252 36.2799C381.473 36.2799 382.463 35.2901 382.463 34.0691C382.463 32.8481 381.473 31.8583 380.252 31.8583C379.031 31.8583 378.041 32.8481 378.041 34.0691C378.041 35.2901 379.031 36.2799 380.252 36.2799Z" fill="#002784"/>
<path d="M355.113 36.2799C356.334 36.2799 357.324 35.2901 357.324 34.0691C357.324 32.8481 356.334 31.8583 355.113 31.8583C353.892 31.8583 352.902 32.8481 352.902 34.0691C352.902 35.2901 353.892 36.2799 355.113 36.2799Z" fill="#002784"/>
<path d="M430.711 110.637C431.101 109.757 434.042 169.539 431.861 179.063C430.341 185.705 415.995 196.269 412.284 196.269C408.573 196.269 405.371 185.405 405.371 185.405L414.665 179.103L407.842 124.893L430.711 110.637Z" fill="#8C6239"/>
<path d="M327.132 124.453L320.31 178.663L329.603 185.005C329.603 185.005 326.402 195.869 322.691 195.869C318.979 195.869 304.684 185.305 303.114 178.663C300.933 169.139 303.874 109.367 304.264 110.237L327.132 124.453Z" fill="#8C6239"/>
<path d="M412.064 134.196C412.08 133.719 412.217 133.254 412.462 132.845C412.707 132.436 413.052 132.095 413.464 131.855C419.206 128.514 438.554 119.02 438.574 115.179C438.574 108.677 425.919 98.4829 417.706 91.0201C407.642 81.8667 378.842 77.115 378.842 77.115C378.842 77.115 378.782 89.7296 367.978 89.6996C356.493 89.6996 356.313 77.115 356.313 77.115C356.313 77.115 330.034 80.7763 321.821 86.6685C313.608 92.5607 299.922 108.397 299.402 113.799C298.882 119.201 322.331 129.804 325.852 131.115C329.663 132.565 327.263 163.867 327.263 163.867L410.973 162.867L412.064 134.196Z" fill="#9AD4F1"/>
<path d="M319.81 204.802C318.147 205.648 316.849 207.071 316.158 208.804C315.428 211.274 316.799 213.855 318.159 215.976C327.652 230.457 341.432 241.611 357.574 247.878C369.678 252.45 383.703 253.7 394.887 246.948C407.762 239.175 413.895 222.819 416.716 207.223C417.146 204.852 417.426 202.121 415.975 200.29C415.102 199.325 413.97 198.631 412.714 198.29C405.221 195.689 397.138 196.229 389.285 196.869C375.814 197.97 362.359 199.303 348.921 200.871C338.567 202.111 329.563 198.72 319.81 204.802Z" fill="#999999"/>
<path d="M350.941 284.982C350.941 284.982 339.587 274.668 338.827 273.677C338.067 272.687 322.501 278.139 323.931 283.801C324.832 287.422 360.395 320.044 362.836 315.703C370.108 302.758 350.941 284.982 350.941 284.982Z" fill="#E6E6E6"/>
<path d="M392.957 286.372C392.957 286.372 399.649 273.067 399.959 271.897C400.269 270.726 416.345 270.246 417.046 275.898C417.486 279.49 396.638 321.465 392.917 318.384C381.833 309.15 392.957 286.372 392.957 286.372Z" fill="#E6E6E6"/>
<path d="M352.762 289.573C352.762 289.573 449.498 243.796 466.104 225.47C480.969 209.074 471.286 184.104 440.544 189.456C409.533 194.868 338.237 274.418 338.237 274.418L352.762 289.573Z" fill="#CCCCCC"/>
<path d="M355.253 280.14L354.503 278.789C355.303 278.349 434.622 234.333 449.858 218.167C454.059 213.715 455.54 208.593 453.729 204.822C452.329 201.901 449.198 200.34 445.356 200.641C429.42 201.891 411.864 212.445 411.714 212.545L411.284 211.915H410.513C410.513 211.444 410.513 211.384 413.945 209.554C415.685 208.613 418.476 207.183 421.887 205.682C427.84 203.071 436.723 199.81 445.266 199.14C449.778 198.79 453.469 200.681 455.16 204.202C457.251 208.563 455.66 214.346 451.018 219.277C435.583 235.613 358.524 278.369 355.253 280.14Z" fill="#F2F2F2"/>
<path d="M399.909 274.748C399.909 274.748 334.605 209.954 310.586 197.109C290.399 186.295 255.676 205.212 274.713 230.181C294.921 256.691 391.956 290.484 391.956 290.484L399.909 274.748Z" fill="#CCCCCC"/>
<path d="M390.616 280.2C387.385 278.649 311.187 242.016 294.51 227C287.928 221.068 288.238 215.756 289.008 213.115C289.611 211.179 290.738 209.447 292.263 208.111C293.788 206.775 295.653 205.886 297.652 205.542C305.795 204.192 316.218 206.053 323.531 207.853C327.693 208.854 331.274 209.984 333.535 210.724C337.926 212.165 337.936 212.215 338.057 212.725L337.306 212.905H336.536H337.306L336.976 213.605C336.766 213.515 313.117 204.602 297.902 207.103C296.19 207.394 294.591 208.153 293.283 209.295C291.975 210.437 291.008 211.918 290.489 213.575C289.339 217.577 291.129 221.898 295.541 225.87C312.057 240.745 390.496 278.449 391.286 278.829L390.616 280.2Z" fill="#F2F2F2"/>
<path d="M316.559 137.447H418.226C422.968 137.447 426.809 142.259 426.809 148.201V205.912C426.809 211.855 422.968 216.666 418.226 216.666H316.559C311.817 216.666 307.975 211.855 307.975 205.912V148.201C307.975 142.259 311.817 137.447 316.559 137.447Z" fill="#E6E6E6"/>
<path d="M367.397 192.067C375.823 192.067 382.653 184.991 382.653 176.262C382.653 167.532 375.823 160.456 367.397 160.456C358.972 160.456 352.142 167.532 352.142 176.262C352.142 184.991 358.972 192.067 367.397 192.067Z" fill="white"/>
</svg>
