<svg width="16" height="16" viewBox="0 0 16 16" fill="none" xmlns="http://www.w3.org/2000/svg">
<path fill-rule="evenodd" clip-rule="evenodd" d="M8.02646 0C3.58515 0 0 3.66928 0 8.21481C0 11.8293 2.30092 14.8962 5.5115 15.9915C5.93958 16.0463 6.0466 15.8272 6.0466 15.6081V14.1842C3.79919 14.6771 3.3176 13.0889 3.3176 13.0889C2.94304 12.1579 2.40794 11.8841 2.40794 11.8841C1.6588 11.3912 2.46145 11.3912 2.46145 11.3912C3.26409 11.446 3.69217 12.2127 3.69217 12.2127C4.3878 13.4723 5.56501 13.0889 6.0466 12.8699C6.10011 12.3222 6.31415 11.9936 6.5817 11.7746C4.81587 11.5555 2.94303 10.8435 2.94303 7.72192C2.94303 6.84567 3.26409 6.07896 3.74568 5.5313C3.63866 5.31224 3.37111 4.49076 3.79919 3.34069C3.79919 3.34069 4.49482 3.12163 5.99309 4.16217C6.63521 3.99787 7.33083 3.88834 8.02646 3.88834C8.72209 3.88834 9.41771 3.99787 10.0598 4.16217C11.6116 3.12163 12.2537 3.34069 12.2537 3.34069C12.6818 4.49076 12.4143 5.31224 12.3072 5.5313C12.8423 6.07896 13.1099 6.84567 13.1099 7.72192C13.1099 10.8983 11.237 11.5555 9.47122 11.7746C9.73877 12.0484 10.0063 12.5413 10.0063 13.308V15.5534C10.0063 15.7724 10.1668 16.0463 10.5414 15.9367C13.752 14.8414 15.9994 11.7746 15.9994 8.16004C16.0529 3.66928 12.4678 0 8.02646 0Z" fill="#959595"/>
</svg>
