<svg width="16" height="16" viewBox="0 0 16 16" fill="none" xmlns="http://www.w3.org/2000/svg">
<g clip-path="url(#clip0)">
<path d="M15.996 15.9995V15.9988H16V10.1308C16 7.26016 15.382 5.04883 12.026 5.04883C10.4127 5.04883 9.33003 5.93416 8.88803 6.7735H8.84136V5.31683H5.65936V15.9988H8.9727V10.7095C8.9727 9.31684 9.2367 7.97017 10.9614 7.97017C12.6607 7.97017 12.686 9.5595 12.686 10.7988V15.9995H15.996Z" fill="#959595"/>
<path d="M0.263977 5.31836H3.58131V16.0004H0.263977V5.31836Z" fill="#959595"/>
<path d="M1.92133 0C0.860667 0 0 0.860667 0 1.92133C0 2.982 0.860667 3.86067 1.92133 3.86067C2.982 3.86067 3.84267 2.982 3.84267 1.92133C3.842 0.860667 2.98133 0 1.92133 0V0Z" fill="#959595"/>
</g>
<defs>
<clipPath id="clip0">
<rect width="16" height="16" fill="white"/>
</clipPath>
</defs>
</svg>
