<svg width="173" height="52" viewBox="0 0 173 52" fill="none" xmlns="http://www.w3.org/2000/svg">
<path d="M30.3338 33.2003V15.7353C28.9077 13.1841 26.7986 11.0829 24.2442 9.6686L24.265 30.0526C22.6838 33.1726 19.7047 35.2249 15.6946 35.2249C11.6844 35.2249 8.65003 33.1137 7.10687 29.9555V21.3409V21.2889V9.64087C4.53656 11.0802 2.43079 13.2261 1.03802 15.8254V33.0478C3.69877 37.9635 8.78497 41.2534 15.7015 41.2534C16.3624 41.2534 16.999 41.2118 17.6253 41.1563L25.521 45.2747L28.3236 39.8806L25.5556 38.4281C27.5353 37.0848 29.1721 35.2941 30.3338 33.2003Z" fill="#26AC80"/>
<path d="M21.2062 14.4664V7.58158C17.6137 6.44371 13.7595 6.43524 10.1619 7.55732V14.4525C11.7684 13.3186 13.6916 12.7229 15.6564 12.7504C17.6401 12.7258 19.5814 13.3261 21.2062 14.4664Z" fill="#26AC80"/>
<path d="M44.9557 45.2781H46.1425L46.1425 6.72181H44.9557L44.9557 45.2781Z" fill="#26AC80"/>
<path d="M62.2142 16.3662H65.6984V32.1187H62.2142V16.3662Z" fill="#26AC80"/>
<path d="M76.7013 26.2426C76.7013 24.5093 75.9366 23.6565 74.4107 23.6565C72.8849 23.6565 71.8953 24.9149 71.8953 26.3778V32.1186H68.7052V21.001H71.622L71.7362 22.4189C72.1355 21.8764 72.6618 21.4405 73.2688 21.1497C73.8757 20.859 74.5448 20.7222 75.2169 20.7514C77.7773 20.7514 79.9537 21.833 79.9537 26.2218V32.1152H76.6978L76.7013 26.2426Z" fill="#26AC80"/>
<path d="M86.9394 21.0669H89.7489V23.7674H86.9187V28.0453C86.9187 29.2135 87.5691 29.529 88.1781 29.529C88.6401 29.5284 89.0975 29.4365 89.524 29.2586L90.2645 31.9591C89.5208 32.2595 88.7304 32.4273 87.929 32.4549C85.5277 32.5658 83.7078 31.5085 83.7078 28.0453V23.7674H81.7287V21.0669H83.7078V18.3213L86.9394 17.9746V21.0669Z" fill="#26AC80"/>
<path d="M97.6066 29.6884C98.4819 29.6884 99.6826 29.5082 100.482 28.8079L102.302 30.8532C101.112 32.0215 99.2258 32.493 97.5408 32.493C93.5203 32.493 91.3128 30.0663 91.3128 26.5303C91.3128 23.178 93.6033 20.793 97.1948 20.793C100.544 20.793 102.855 22.6164 102.855 26.194C102.861 26.6989 102.824 27.2034 102.745 27.702H94.5963C94.7555 28.7732 95.7866 29.6884 97.6066 29.6884ZM97.2017 23.542C95.8765 23.542 94.9354 24.2354 94.5963 25.3204H99.8521C99.7864 24.1279 98.5511 23.542 97.2017 23.542Z" fill="#26AC80"/>
<path d="M108.163 22.2386C108.485 21.7537 108.927 21.3614 109.447 21.1005C109.966 20.8397 110.545 20.7193 111.125 20.7514C112.123 20.7361 113.091 21.0988 113.834 21.7671L112.485 24.329C111.973 23.9555 111.353 23.7584 110.72 23.7674C109.336 23.7674 108.135 24.6687 108.135 26.3327V32.1186H104.9V21.0253H107.91L108.163 22.2386Z" fill="#26AC80"/>
<path d="M123.096 26.2426C123.096 24.5092 122.332 23.6564 120.806 23.6564C119.28 23.6564 118.29 24.9148 118.29 26.3778V32.1186H115.1V21.001H118.021L118.131 22.4188C118.531 21.8765 119.057 21.4408 119.664 21.1501C120.271 20.8593 120.94 20.7224 121.612 20.7514C124.172 20.7514 126.352 21.833 126.352 26.2218V32.1151H123.096V26.2426Z" fill="#26AC80"/>
<path d="M133.29 23.3862C132.234 23.3862 131.695 23.7675 131.695 24.284C131.695 24.8942 132.234 25.2304 133.335 25.2547C135.49 25.3206 138.179 25.7712 138.179 28.8323C138.179 30.5656 136.853 32.5209 133.335 32.5209C131.422 32.5694 129.562 31.8949 128.124 30.6315L129.508 28.3817C130.626 29.285 132.027 29.7638 133.463 29.7336C134.383 29.7336 135.058 29.3488 135.033 28.8323C135.009 28.3158 134.653 27.9102 133.148 27.8408C131.072 27.775 128.497 26.8945 128.497 24.284C128.497 21.8123 130.857 20.7307 133.283 20.7307C134.988 20.7307 136.359 21.1571 137.528 22.1694L135.933 24.1731C135.16 23.6323 134.232 23.3563 133.29 23.3862Z" fill="#26AC80"/>
<path d="M143.351 22.3289C143.752 21.8233 144.266 21.4192 144.851 21.1494C145.437 20.8796 146.077 20.7516 146.721 20.7758C149.327 20.7758 151.143 22.1625 151.143 26.1075V32.1187H147.912V26.1318C147.912 24.5787 147.078 23.7225 145.797 23.7225C144.452 23.7225 143.327 24.6446 143.327 26.4473V32.1187H140.095V16.3662H143.351V22.3289Z" fill="#26AC80"/>
<path d="M155.354 16.231C155.713 16.2358 156.063 16.3469 156.359 16.5503C156.655 16.7537 156.884 17.0403 157.018 17.3741C157.152 17.7079 157.185 18.0739 157.111 18.4261C157.038 18.7783 156.863 19.1009 156.607 19.3534C156.351 19.6058 156.026 19.7768 155.674 19.8449C155.321 19.9129 154.957 19.8749 154.625 19.7357C154.294 19.5964 154.012 19.3622 153.813 19.0624C153.615 18.7627 153.509 18.4107 153.51 18.051C153.497 17.8062 153.536 17.5615 153.625 17.333C153.713 17.1046 153.849 16.8975 154.023 16.7255C154.198 16.5535 154.406 16.4205 154.636 16.3353C154.865 16.25 155.11 16.2145 155.354 16.231ZM156.97 32.1187H153.735V20.9769H156.97V32.1187Z" fill="#26AC80"/>
<path d="M159.7 21.0218H162.596L162.796 22.4396C163.81 21.1119 165.066 20.7756 166.481 20.7756C169.737 20.7756 171.962 23.1399 171.962 26.5823C171.962 30.2258 169.692 32.4548 166.426 32.4548C165.782 32.4762 165.141 32.3609 164.545 32.1165C163.948 31.8722 163.41 31.5043 162.966 31.037V37.0239H159.71L159.7 21.0218ZM168.696 26.5684C168.696 24.9703 167.706 23.7084 165.976 23.7084C164.516 23.7084 162.99 24.4538 162.99 26.5684C162.99 28.5028 164.471 29.47 165.976 29.47C167.672 29.4839 168.706 28.2671 168.706 26.5823L168.696 26.5684Z" fill="#26AC80"/>
</svg>
