<svg width="168" height="50" viewBox="0 0 168 50" fill="none" xmlns="http://www.w3.org/2000/svg">
<path d="M39.6782 13.2666C33.8721 13.2666 30.24 17.5233 30.24 22.6933C30.24 27.8633 33.7881 32.1233 39.7051 32.1233C45.6221 32.1233 49.2106 27.9033 49.2106 22.6933C49.2106 17.4833 45.4843 13.2666 39.6782 13.2666ZM39.7152 27.9999C36.4257 27.9999 34.7592 25.4333 34.7592 22.6666C34.7592 19.8999 36.4627 17.3333 39.7152 17.3333C42.7392 17.3333 44.6712 19.9733 44.6712 22.6866C44.6712 25.3999 43.008 27.9999 39.7152 27.9999Z" fill="#26AC80"/>
<path d="M68.0232 16.09C66.9514 14.22 63.9543 13.1933 62.0323 13.1933C56.7067 13.1933 52.752 16.42 52.752 22.6667C52.752 28.61 56.784 32.1333 62.1432 32.1333C64.3608 32.1333 66.6187 31.4 68.0232 29.2333L68.3189 31.73H72.5357V6.07666H68.0232V16.09ZM62.4389 27.9767C59.556 27.9767 57.2611 25.8133 57.2611 22.6433C57.2611 19.38 59.556 17.3633 62.4389 17.3633C63.1416 17.3513 63.8394 17.4808 64.4903 17.7438C65.1412 18.0068 65.7316 18.3979 66.2258 18.8935C66.7201 19.3892 67.108 19.9791 67.3661 20.6276C67.6242 21.2761 67.7472 21.9697 67.7275 22.6667C67.7275 25.9233 65.2882 27.9767 62.4389 27.9767Z" fill="#26AC80"/>
<path d="M86.1504 13.0835C80.2334 13.0835 76.4601 17.0468 76.4601 22.5468C76.4601 28.3435 80.1965 32.2135 86.483 32.2135C89.255 32.2135 92.4 31.2602 94.3219 29.2802L91.439 26.4535C90.4008 27.5168 88.2201 28.1402 86.5569 28.1402C83.375 28.1402 81.4161 26.5268 81.1205 24.2902H95.3568C96.059 16.8268 92.2521 13.0835 86.1504 13.0835ZM81.1944 20.5668C81.8664 18.2335 83.8555 17.0468 86.2982 17.0468C88.8854 17.0468 90.7334 18.2202 91.0325 20.5668H81.1944Z" fill="#26AC80"/>
<path d="M116.968 16.9H104.247V6.07666H99.3653V31.7567H104.247V21.3733H116.968V31.7567H121.813V6.07666H116.968V16.9Z" fill="#26AC80"/>
<path d="M139.312 22.8766C139.312 25.63 137.424 27.94 134.652 27.94C131.766 27.94 130.25 25.85 130.25 23.1V13.6333H125.738V23.1333C125.738 28.7466 128.92 32.0133 133.284 32.0133C135.835 32.0133 137.572 31.1333 139.46 29.3L139.756 31.7566H143.788V13.6333H139.312V22.8766Z" fill="#26AC80"/>
<path d="M158.212 13.1932C156.29 13.1932 153.297 14.2198 152.221 16.0898V6.08984H147.712V31.7198H151.929L152.221 29.2232C153.629 31.3898 155.884 32.1232 158.105 32.1232C163.464 32.1232 167.496 28.5998 167.496 22.6565C167.496 16.4198 163.538 13.1932 158.212 13.1932ZM157.806 27.9765C154.96 27.9765 152.52 25.9232 152.52 22.6432C152.504 21.9485 152.629 21.2576 152.889 20.6121C153.148 19.9665 153.536 19.3796 154.03 18.8865C154.523 18.3935 155.112 18.0044 155.761 17.7426C156.41 17.4808 157.105 17.3518 157.806 17.3632C160.692 17.3632 162.984 19.3632 162.984 22.6432C162.984 25.8132 160.692 27.9765 157.806 27.9765Z" fill="#26AC80"/>
<path d="M20.8051 4.39988V22.0665C19.4376 24.7465 16.8336 26.5399 13.3258 26.5399C9.81795 26.5399 7.17363 24.7099 5.81283 21.9732V14.5132V14.4665V4.37988C3.56357 5.62542 1.72124 7.48436 0.504028 9.73655V24.6665C2.83251 28.9099 7.28115 31.7599 13.3325 31.7599C13.9104 31.7599 14.4682 31.7265 15.0125 31.6765L21.924 35.2465L24.3735 30.5799L21.9408 29.3332C23.677 28.1695 25.1124 26.6165 26.1307 24.7999V9.66655C24.8861 7.4521 23.0412 5.62767 20.8051 4.39988Z" fill="#26AC80"/>
<path d="M18.144 8.56008V2.59341C15.0003 1.6092 11.6284 1.60222 8.48065 2.57341V8.54674C9.88704 7.56567 11.5697 7.05006 13.2888 7.07341C15.0244 7.05093 16.7231 7.57107 18.144 8.56008Z" fill="#26AC80"/>
<path d="M73.463 38.8169H75.18V47.9169H73.463V38.8169Z" fill="#26AC80"/>
<path d="M84.9442 38.8169H86.688V47.9169H85.2835L80.4115 41.8569V47.9169H78.6811V38.8169H80.0822L84.9576 44.9402L84.9442 38.8169Z" fill="#26AC80"/>
<path d="M89.2953 40.3769V38.8169H96.8419V40.3769H93.9321V47.9169H92.2051V40.3769H89.2953Z" fill="#26AC80"/>
<path d="M99.456 47.9169V38.8169H106.32V40.4836H101.18V42.5769H106.149V44.1769H101.18V46.2302H106.331V47.9202L99.456 47.9169Z" fill="#26AC80"/>
<path d="M115.638 47.9166L112.977 44.8732H111.216V47.9166H109.486V38.8032C110.954 38.8032 112.382 38.8032 113.854 38.8032C116.017 38.8032 117.156 40.2599 117.156 41.8032C117.156 43.0499 116.579 44.3099 114.838 44.6632L117.6 47.7999V47.9166H115.638ZM111.216 43.3332H113.85C114.952 43.3332 115.423 42.6066 115.423 41.8766C115.423 41.1466 114.939 40.4199 113.85 40.4199H111.216V43.3332Z" fill="#26AC80"/>
<path d="M126.618 38.8169H128.352V47.9169H126.951L122.076 41.8569V47.9169H120.345V38.8169H121.746L126.622 44.9402L126.618 38.8169Z" fill="#26AC80"/>
<path d="M135.122 40.09C133.825 40.09 133.224 40.65 133.224 41.2067C133.224 42 134.168 42.2067 135.267 42.35C137.196 42.6 138.963 43.0667 138.963 45.25C138.963 47.28 137.155 48.15 135.112 48.15C133.237 48.15 131.783 47.5767 131.114 45.9133L132.555 45.1733C132.975 46.1733 134.01 46.6167 135.136 46.6167C136.261 46.6167 137.246 46.24 137.246 45.25C137.246 44.3933 136.342 44.0533 135.122 43.9167C133.251 43.7067 131.52 43.1867 131.52 41.16C131.52 39.4567 133.382 38.5967 135.072 38.5967C136.513 38.5967 137.968 39 138.674 40.4067L137.3 41.1067C136.984 40.5833 136.12 40.09 135.122 40.09Z" fill="#26AC80"/>
<path d="M148.085 44.2502H143.576V47.9169H141.846V38.8169H143.576V42.6669H148.085V38.8336H149.802V47.9336H148.085V44.2502Z" fill="#26AC80"/>
<path d="M153.29 38.8169H155.004V47.9169H153.29V38.8169Z" fill="#26AC80"/>
<path d="M160.222 47.9169H158.491V38.8169C159.919 38.8169 161.388 38.8169 162.816 38.8169C165.07 38.8169 166.196 40.4169 166.196 42.0136C166.196 43.6102 165.07 45.2269 162.816 45.2502H160.222V47.9169ZM162.816 43.6669C163.035 43.6768 163.254 43.6425 163.46 43.5659C163.666 43.4894 163.854 43.3723 164.013 43.2217C164.172 43.071 164.298 42.89 164.385 42.6895C164.471 42.489 164.516 42.2733 164.516 42.0552C164.516 41.8372 164.471 41.6214 164.385 41.4209C164.298 41.2205 164.172 41.0394 164.013 40.8888C163.854 40.7382 163.666 40.6211 163.46 40.5445C163.254 40.468 163.035 40.4337 162.816 40.4436H160.222V43.6669H162.816Z" fill="#26AC80"/>
</svg>
