<svg width="16" height="16" viewBox="0 0 16 16" fill="none" xmlns="http://www.w3.org/2000/svg">
<g clip-path="url(#clip0)">
<path d="M16 3.04612C15.3705 3.31687 14.7409 3.48595 14.1117 3.55387C14.8223 3.12748 15.303 2.52511 15.5535 1.74679C14.9034 2.1325 14.2098 2.39639 13.4721 2.53859C12.8223 1.84824 12.0238 1.50293 11.0761 1.50293C10.1692 1.50293 9.39605 1.82268 8.7562 2.46231C8.11671 3.10191 7.79692 3.87511 7.79692 4.78201C7.79692 5.02562 7.82395 5.27613 7.87814 5.5333C6.53799 5.46563 5.28084 5.12892 4.10647 4.52317C2.93217 3.91735 1.93556 3.11023 1.11663 2.10182C0.818827 2.60931 0.66987 3.16101 0.66987 3.75659C0.66987 4.31835 0.80183 4.83958 1.06593 5.32012C1.32985 5.80059 1.68526 6.18972 2.13198 6.48756C1.60397 6.46722 1.10991 6.32843 0.649744 6.07123V6.11184C0.649744 6.90378 0.898479 7.59906 1.39588 8.19823C1.89335 8.79733 2.52114 9.17444 3.27912 9.33018C2.99482 9.40454 2.70712 9.44177 2.41614 9.44177C2.22661 9.44177 2.02015 9.42488 1.79684 9.39127C2.00664 10.0477 2.39245 10.5872 2.95414 11.0105C3.51594 11.4335 4.15216 11.6515 4.86284 11.6654C3.67169 12.5992 2.31469 13.0662 0.791838 13.0662C0.500752 13.0662 0.236869 13.0529 -6.10352e-05 13.0257C1.52282 14.0069 3.20131 14.4976 5.03552 14.4976C6.19965 14.4976 7.29273 14.3134 8.31441 13.9444C9.33659 13.5757 10.2096 13.0815 10.9339 12.4621C11.6579 11.8428 12.2824 11.1305 12.8069 10.3251C13.3314 9.51964 13.7221 8.67878 13.9795 7.80232C14.2366 6.92568 14.3653 6.04769 14.3653 5.16768C14.3653 4.97815 14.3619 4.83609 14.3551 4.74129C14.9982 4.27451 15.5464 3.70926 16 3.04612Z" fill="#959595"/>
</g>
<defs>
<clipPath id="clip0">
<rect width="16" height="16" fill="white"/>
</clipPath>
</defs>
</svg>
